<svg id="Layer_1" data-name="Layer 1" xmlns="http://www.w3.org/2000/svg" viewBox="0 0 168.31 169.1"><defs><style>.cls-1{fill:#004d72;}.cls-2{fill:#fff;}.cls-3{fill:none;}.cls-4{fill:#61cbc8;stroke:#62cbc9;stroke-miterlimit:10;stroke-width:1.49px;}</style></defs><title>Icons_version1</title><path class="cls-1" d="M150.84,33.64H17.47a84.16,84.16,0,1,0,133.37,0Z"/><path class="cls-2" d="M61.05,63a6.23,6.23,0,1,1,6.24-6.24A6.22,6.22,0,0,1,61.05,63Z"/><path class="cls-2" d="M110.42,56.84a6.22,6.22,0,1,1-6.16-6.31A6.21,6.21,0,0,1,110.42,56.84Z"/><path class="cls-3" d="M97.83,96.75A1.92,1.92,0,0,1,98,96a7.89,7.89,0,0,0,.74-3.44V90.48H94.16c0,.76,0,1.51,0,2.27A3.07,3.07,0,0,1,91,95.88H89.88v13.75c0,2.51-.5,3.22-2.8,4H78.26a1.4,1.4,0,0,0-.17-.09,4.66,4.66,0,0,1-.87-.3V149.2h42.3L110.46,140a14.46,14.46,0,1,1,1.83-1.86l8.94,9V108.8H102.88v-8.64c-.58,0-1.17,0-1.75,0A3.09,3.09,0,0,1,97.83,96.75Z"/><path class="cls-3" d="M107.05,100.17h-1.64v6.17h13.87l-8.85-8.85A3.08,3.08,0,0,1,107.05,100.17Z"/><path class="cls-3" d="M110.49,84.74v9.09l4,4c.17.18.36.34.63.6V84.35h-2.64a4.38,4.38,0,0,1-1.67.36Z"/><path class="cls-3" d="M98.76,88V84.35h-4.6V88Z"/><path class="cls-3" d="M71.16,92.82c0-2.82,0-5.64,0-8.47h-.07v58.76h3.66V95.93h-.52A3,3,0,0,1,71.16,92.82Z"/><path class="cls-3" d="M101,116.93A12.05,12.05,0,1,0,113.07,129,12.08,12.08,0,0,0,101,116.93Zm-6.93,6.59h7a1.28,1.28,0,0,1,1.42,1.2c0,.74-.54,1.24-1.43,1.24h-7c-.89,0-1.39-.43-1.4-1.18S93.18,123.53,94.08,123.52Zm14.53,9.79c-.86,0-1.72,0-2.58,0H94.39a4.18,4.18,0,0,1-.71,0,1.11,1.11,0,0,1-1-1.06A1.12,1.12,0,0,1,93.5,131a2.8,2.8,0,0,1,.77-.09h13.94a2.85,2.85,0,0,1,.5,0,1.2,1.2,0,0,1,1.08,1.29A1.16,1.16,0,0,1,108.61,133.31Z"/><path class="cls-2" d="M94.16,76.7a3,3,0,0,0-3.09-3.08q-8.43,0-16.84,0a3,3,0,0,0-3.07,3.08c0,1.74,0,3.48,0,5.22h23C94.16,80.18,94.17,78.44,94.16,76.7Z"/><path class="cls-2" d="M70.24,70.11a1.51,1.51,0,0,0,.87-1.65,3.07,3.07,0,0,0-3-3.13c-4.68,0-9.35,0-14,0a2.94,2.94,0,0,0-2.8,1.93c-.07.16-.15.31-.22.46V82.33a3.29,3.29,0,0,0,3.54,2.51s.07,0,.16.1v.68c0,3.79,0,7.59,0,11.38a3,3,0,0,0,2.75,3.22c2.38.07,4.78.08,7.17,0A3.12,3.12,0,0,0,67.2,96a9.19,9.19,0,0,1-.71-3.11q-.1-8.09,0-16.19A7.3,7.3,0,0,1,70.24,70.11Z"/><path class="cls-2" d="M114.19,81.25V68.49A3.08,3.08,0,0,0,111,65.25c-4.58,0-9.17,0-13.75,0a3.09,3.09,0,0,0-2.39,1,3.55,3.55,0,0,0-.77,2.83.91.91,0,0,0,.41.63,7.67,7.67,0,0,1,4.22,7.07c0,1.7,0,3.39,0,5.09h15.38A4.8,4.8,0,0,0,114.19,81.25Z"/><path class="cls-2" d="M82.36,71a7.16,7.16,0,1,0-6.87-7.42A7.15,7.15,0,0,0,82.36,71Z"/><path class="cls-2" d="M126.76,153c-.8-.82-1.6-1.65-2.44-2.43a1.72,1.72,0,0,1-.59-1.44q0-20.67,0-41.36a1.52,1.52,0,0,0-.49-1.19c-1.71-1.68-3.38-3.39-5.09-5.06a1.69,1.69,0,0,1-.56-1.32c0-5.81,0-11.63,0-17.45v-.83h-3.48a2.86,2.86,0,0,1-1.67,2.43h2.64V98.41c-.27-.26-.46-.42-.63-.6l-4-4v2.84a5.13,5.13,0,0,1-.06.81l8.85,8.85H105.41v-6.17c-.84,0-1.68,0-2.53,0v8.64h18.35v38.36l-8.94-9a14.54,14.54,0,1,0-1.83,1.86l9.06,9.16H77.22V113.26a3,3,0,0,1-1.8-3.07q0-6.7,0-13.42v-.84h-.66v47.18H71.09V84.35h.07V81.92H68.65v63.72h6.11v6.07h46.45a1.71,1.71,0,0,1,1.38.57c1,1.07,2.09,2.09,3.14,3.12h.86C127.66,154.59,127.71,154,126.76,153ZM101,141a12.05,12.05,0,1,1,12.09-12A12.07,12.07,0,0,1,101,141Z"/><path class="cls-2" d="M94.16,90.48h4.59c0-.82,0-1.65,0-2.47h-4.6Z"/><path class="cls-2" d="M98.76,84.35V81.92h-4.6v2.43Z"/><path class="cls-2" d="M94.16,90.48V88L75.37,88l-.62,0v7.9h.66v.84q0,6.72,0,13.42a3,3,0,0,0,1.8,3.07V90.48Z"/><path class="cls-2" d="M94.16,84.35V81.92h-23v2.43Z"/><path class="cls-2" d="M112.47,84.35a2.86,2.86,0,0,0,1.67-2.43H98.76v2.43Z"/><path class="cls-2" d="M104.09,88H98.76c0,.82,0,1.65,0,2.47h4.13v9.68c.85,0,1.69,0,2.53,0V92.47l5,5a5.13,5.13,0,0,0,.06-.81V93.83c-1.8-1.8-3.61-3.61-5.42-5.4A1.53,1.53,0,0,0,104.09,88Z"/><path class="cls-2" d="M108.71,130.9a2.85,2.85,0,0,0-.5,0H94.27a2.8,2.8,0,0,0-.77.09,1.12,1.12,0,0,0-.82,1.27,1.11,1.11,0,0,0,1,1.06,4.18,4.18,0,0,0,.71,0H106c.86,0,1.72,0,2.58,0a1.16,1.16,0,0,0,1.18-1.12A1.2,1.2,0,0,0,108.71,130.9Z"/><path class="cls-2" d="M94.07,126h7c.89,0,1.45-.5,1.43-1.24a1.28,1.28,0,0,0-1.42-1.2h-7c-.9,0-1.43.49-1.41,1.26S93.18,126,94.07,126Z"/><path class="cls-4" d="M84.34.74A82.14,82.14,0,0,0,18.91,33.31H149.77A82.11,82.11,0,0,0,84.34.74Z"/></svg>