<svg id="Layer_1" data-name="Layer 1" xmlns="http://www.w3.org/2000/svg" viewBox="0 0 170.68 171.62"><defs><style>.cls-1{fill:#004d72;}.cls-2{fill:#fff;}.cls-3,.cls-4,.cls-5{fill:none;}.cls-3,.cls-4{stroke:#fff;}.cls-3,.cls-4,.cls-6{stroke-miterlimit:10;}.cls-4{stroke-dasharray:5.13 5.13 5.13 5.13 5.13 5.13;}.cls-6{fill:#61cbc8;stroke:#62cbc9;stroke-width:1.5px;}</style></defs><title>Icons_version1</title><path class="cls-1" d="M153,34.25H17.71a85.34,85.34,0,1,0,135.26,0Z"/><path class="cls-2" d="M94.28,102.91a2.52,2.52,0,0,1-1.43-2.3,6.62,6.62,0,0,1,1.31-4.87,22.41,22.41,0,0,0,1.93-3.82,1.48,1.48,0,0,1,.45-.59A3.82,3.82,0,0,0,98.42,88c0-1.19,0-2.39,0-3.58a4,4,0,0,0-.7-2.25,1.37,1.37,0,0,1-.21-.71c0-1.48-.07-3,0-4.43a8.36,8.36,0,0,0-7-9,16.53,16.53,0,0,0-10.66.73A7.87,7.87,0,0,0,75,76.38c0,1.68,0,3.35,0,5a1.58,1.58,0,0,1-.25.82,4.08,4.08,0,0,0-.66,2.26v3.41a3.9,3.9,0,0,0,1.18,2.91,1.25,1.25,0,0,1,.31.55,20.51,20.51,0,0,0,2.86,5.94,1.69,1.69,0,0,1,.26.82c0,.79,0,1.59,0,2.39a2.38,2.38,0,0,1-1.38,2.32l-7.18,3.92-.52.29-3.07,1.74a28.18,28.18,0,0,0,17.54,7.76,2.36,2.36,0,0,1,.46.1H88c1.16-.16,2.32-.28,3.48-.49a27.86,27.86,0,0,0,14-6.83l.43-.42-2.94-1.67Z"/><path class="cls-3" d="M94.28,102.91a2.52,2.52,0,0,1-1.43-2.3,6.62,6.62,0,0,1,1.31-4.87,22.41,22.41,0,0,0,1.93-3.82,1.48,1.48,0,0,1,.45-.59A3.82,3.82,0,0,0,98.42,88c0-1.19,0-2.39,0-3.58a4,4,0,0,0-.7-2.25,1.37,1.37,0,0,1-.21-.71c0-1.48-.07-3,0-4.43a8.36,8.36,0,0,0-7-9,16.53,16.53,0,0,0-10.66.73A7.87,7.87,0,0,0,75,76.38c0,1.68,0,3.35,0,5a1.58,1.58,0,0,1-.25.82,4.08,4.08,0,0,0-.66,2.26v3.41a3.9,3.9,0,0,0,1.18,2.91,1.25,1.25,0,0,1,.31.55,20.51,20.51,0,0,0,2.86,5.94,1.69,1.69,0,0,1,.26.82c0,.79,0,1.59,0,2.39a2.38,2.38,0,0,1-1.38,2.32l-7.18,3.92-.52.29-3.07,1.74a28.18,28.18,0,0,0,17.54,7.76,2.36,2.36,0,0,1,.46.1H88c1.16-.16,2.32-.28,3.48-.49a27.86,27.86,0,0,0,14-6.83l.43-.42-2.94-1.67Z"/><circle class="cls-4" cx="86.27" cy="90.98" r="48.96"/><rect class="cls-1" x="42.8" y="59.12" width="9.94" height="3.06" transform="translate(-28.22 47) rotate(-41.59)"/><rect class="cls-1" x="37.38" y="67.98" width="9.94" height="3.06" transform="translate(-38.84 75.36) rotate(-62.77)"/><path class="cls-3" d="M43.86,69.4a.32.32,0,0,1,.13-.47l1.36-.75-1.53-2.74A.37.37,0,0,1,44,65l0,0a.32.32,0,0,1,.47.13L46,67.86l3-1.64-1.54-2.77a.33.33,0,0,1,.14-.47.32.32,0,0,1,.47.14l1.53,2.76,1.36-.75a.31.31,0,0,1,.26,0,.32.32,0,0,1,.21.17l1.92,3.47a4.24,4.24,0,0,1-1,5.3l-.4.33,2.68,4.84a.33.33,0,0,1-.13.47.37.37,0,0,1-.27,0,.38.38,0,0,1-.2-.18l-2.69-4.84-.5.17a4,4,0,0,1-2.46,0,4.25,4.25,0,0,1-2.56-2Z"/><path class="cls-3" d="M38.4,59.5a4.23,4.23,0,0,1,1-5.29l.4-.34-3.44-6.18v0a.38.38,0,0,1,0-.29.3.3,0,0,1,.12-.14l0,0a.32.32,0,0,1,.47.14l3.43,6.17.5-.17a4.12,4.12,0,0,1,2.46,0,4.2,4.2,0,0,1,2.56,2l1,1.59a.33.33,0,0,1,0,.24.32.32,0,0,1-.17.21l-6.87,3.81a.31.31,0,0,1-.26,0,.32.32,0,0,1-.21-.17l-1-1.6Z"/><path class="cls-5" d="M131.06,78.82c-.28,0-.51.3-.52.66a.61.61,0,0,0,.52.67c.28,0,.51-.31.51-.67A.63.63,0,0,0,131.06,78.82Z"/><path class="cls-5" d="M131.06,78.82c-.28,0-.51.3-.52.66a.61.61,0,0,0,.52.67c.28,0,.51-.31.51-.67A.63.63,0,0,0,131.06,78.82Z"/><path class="cls-2" d="M138.12,70.34l-6.63-1.19L130,68.86h-.13v.88h-3.43V87.25h1.27V71h2.17V88.78l1.84-.33,6.39-1.15c.14,0,.19-.07.19-.22q0-8.26,0-16.52C138.31,70.41,138.26,70.37,138.12,70.34Zm-6.69,9.16a.61.61,0,0,1-.51-.67c0-.36.24-.67.52-.66s.5.3.5.66A.61.61,0,0,1,131.43,79.5Z"/><path class="cls-2" d="M113.31,69.9a16.4,16.4,0,0,1,2.25,19.44,27.54,27.54,0,0,1-2.21,3,.86.86,0,0,1-1.35.2c-.39-.36-.35-.88.11-1.38a14.65,14.65,0,0,0,2.23-16.85,15.34,15.34,0,0,0-2.71-3.64c-.42-.43-.47-.83-.19-1.21a.85.85,0,0,1,1.29-.12C112.93,69.51,113.12,69.71,113.31,69.9Z"/><path class="cls-3" d="M113.31,69.9a16.4,16.4,0,0,1,2.25,19.44,27.54,27.54,0,0,1-2.21,3,.86.86,0,0,1-1.35.2c-.39-.36-.35-.88.11-1.38a14.65,14.65,0,0,0,2.23-16.85,15.34,15.34,0,0,0-2.71-3.64c-.42-.43-.47-.83-.19-1.21a.85.85,0,0,1,1.29-.12C112.93,69.51,113.12,69.71,113.31,69.9Z"/><path class="cls-2" d="M109.56,73.48a11.24,11.24,0,0,1,.06,15.3c-.28.29-.59.53-1,.36s-.57-.37-.59-.59a1.42,1.42,0,0,1,.31-.94,9.45,9.45,0,0,0,2.18-8.84,8.91,8.91,0,0,0-2.28-4.11c-.11-.12-.24-.24-.34-.37a.84.84,0,0,1,0-1.22.83.83,0,0,1,1.18,0Z"/><path class="cls-3" d="M109.56,73.48a11.24,11.24,0,0,1,.06,15.3c-.28.29-.59.53-1,.36s-.57-.37-.59-.59a1.42,1.42,0,0,1,.31-.94,9.45,9.45,0,0,0,2.18-8.84,8.91,8.91,0,0,0-2.28-4.11c-.11-.12-.24-.24-.34-.37a.84.84,0,0,1,0-1.22.83.83,0,0,1,1.18,0Z"/><path class="cls-2" d="M105.76,77a6.07,6.07,0,0,1,.09,8.21.91.91,0,0,1-1.3.18.89.89,0,0,1,0-1.3,4.3,4.3,0,0,0-.11-6,.87.87,0,0,1,0-1.33C104.8,76.43,105.25,76.51,105.76,77Z"/><path class="cls-3" d="M105.76,77a6.07,6.07,0,0,1,.09,8.21.91.91,0,0,1-1.3.18.89.89,0,0,1,0-1.3,4.3,4.3,0,0,0-.11-6,.87.87,0,0,1,0-1.33C104.8,76.43,105.25,76.51,105.76,77Z"/><path class="cls-2" d="M61.68,80.42a11.35,11.35,0,0,1,2.46-13.34,18.64,18.64,0,0,1,2.08-1.54.6.6,0,0,1,.94.14c.18.32,0,.65-.36.89a10.15,10.15,0,0,0-4.9,10.72,10.66,10.66,0,0,0,1.05,3c.19.38.15.65-.12.85a.6.6,0,0,1-.88-.19C61.85,80.76,61.77,80.59,61.68,80.42Z"/><path class="cls-3" d="M61.68,80.42a11.35,11.35,0,0,1,2.46-13.34,18.64,18.64,0,0,1,2.08-1.54.6.6,0,0,1,.94.14c.18.32,0,.65-.36.89a10.15,10.15,0,0,0-4.9,10.72,10.66,10.66,0,0,0,1.05,3c.19.38.15.65-.12.85a.6.6,0,0,1-.88-.19C61.85,80.76,61.77,80.59,61.68,80.42Z"/><path class="cls-2" d="M64.9,78.81A7.8,7.8,0,0,1,68,68.65c.24-.13.5-.22.72,0a.74.74,0,0,1,.27.51,1,1,0,0,1-.4.56,6.59,6.59,0,0,0-3.25,5.43A6.18,6.18,0,0,0,66,78.29c.05.11.11.21.15.32a.59.59,0,0,1-1,.54C65,79,65,78.92,64.9,78.81Z"/><path class="cls-3" d="M64.9,78.81A7.8,7.8,0,0,1,68,68.65c.24-.13.5-.22.72,0a.74.74,0,0,1,.27.51,1,1,0,0,1-.4.56,6.59,6.59,0,0,0-3.25,5.43A6.18,6.18,0,0,0,66,78.29c.05.11.11.21.15.32a.59.59,0,0,1-1,.54C65,79,65,78.92,64.9,78.81Z"/><path class="cls-2" d="M68.14,77.24a4.22,4.22,0,0,1,1.6-5.47.64.64,0,0,1,.9.15.6.6,0,0,1-.26.86,3,3,0,0,0-1.13,4,.61.61,0,0,1-.26.89C68.65,77.82,68.37,77.68,68.14,77.24Z"/><path class="cls-3" d="M68.14,77.24a4.22,4.22,0,0,1,1.6-5.47.64.64,0,0,1,.9.15.6.6,0,0,1-.26.86,3,3,0,0,0-1.13,4,.61.61,0,0,1-.26.89C68.65,77.82,68.37,77.68,68.14,77.24Z"/><path class="cls-2" d="M84.91,128.72A10.21,10.21,0,0,1,72.74,128a17,17,0,0,1-1.61-1.67.55.55,0,0,1,0-.86c.26-.19.58-.11.84.22a9.12,9.12,0,0,0,10.1,3.16,9.5,9.5,0,0,0,2.52-1.28c.31-.21.57-.2.77,0a.52.52,0,0,1-.07.8C85.19,128.53,85,128.62,84.91,128.72Z"/><path class="cls-3" d="M84.91,128.72A10.21,10.21,0,0,1,72.74,128a17,17,0,0,1-1.61-1.67.55.55,0,0,1,0-.86c.26-.19.58-.11.84.22a9.12,9.12,0,0,0,10.1,3.16,9.5,9.5,0,0,0,2.52-1.28c.31-.21.57-.2.77,0a.52.52,0,0,1-.07.8C85.19,128.53,85,128.62,84.91,128.72Z"/><path class="cls-2" d="M83.11,126a7,7,0,0,1-9.4-1.59c-.15-.2-.26-.42-.12-.63s.29-.31.43-.3a.85.85,0,0,1,.54.29,5.9,5.9,0,0,0,5.2,2.28,5.62,5.62,0,0,0,2.76-1l.26-.17a.53.53,0,1,1,.6.87A2.78,2.78,0,0,1,83.11,126Z"/><path class="cls-3" d="M83.11,126a7,7,0,0,1-9.4-1.59c-.15-.2-.26-.42-.12-.63s.29-.31.43-.3a.85.85,0,0,1,.54.29,5.9,5.9,0,0,0,5.2,2.28,5.59,5.59,0,0,0,2.76-1l.26-.17a.53.53,0,1,1,.6.87A2.78,2.78,0,0,1,83.11,126Z"/><path class="cls-2" d="M81.34,123.32a3.78,3.78,0,0,1-5-.81.57.57,0,0,1,0-.82.55.55,0,0,1,.8.13,2.67,2.67,0,0,0,3.68.57.55.55,0,0,1,.82.12C81.8,122.8,81.71,123.07,81.34,123.32Z"/><path class="cls-3" d="M81.34,123.32a3.78,3.78,0,0,1-5-.81.57.57,0,0,1,0-.82.55.55,0,0,1,.8.13,2.67,2.67,0,0,0,3.68.57.55.55,0,0,1,.82.12C81.8,122.8,81.71,123.07,81.34,123.32Z"/><rect class="cls-1" x="63.59" y="134.71" width="9.94" height="3.06" transform="translate(67.19 288.75) rotate(-152.77)"/><rect class="cls-1" x="73.26" y="137.64" width="9.94" height="3.06" transform="translate(156.46 278.34) rotate(180)"/><path class="cls-2" d="M80.6,140.09a4.31,4.31,0,0,1-.57,2,4.4,4.4,0,0,1-1.12,1.27,10.44,10.44,0,0,1-2.21,1.06c-.46.19-.93.34-1.37.56a.8.8,0,0,1-.83-.07c-.53-.31-1.07-.59-1.6-.88-.12-.07-.28-.13-.22-.3a.47.47,0,0,1,.26-.26c1.46-.61,3-1.19,4.4-1.82a1.71,1.71,0,0,0,.94-1.37,1.91,1.91,0,0,0-1.86-2.21,3.06,3.06,0,0,0-1.09.27c-1.3.51-2.59,1.05-3.88,1.57a.47.47,0,0,1-.33,0c-.14-.07-.11-.21-.06-.34.21-.69.42-1.39.64-2.08a.39.39,0,0,1,.21-.21c1-.43,2.06-.86,3.1-1.26a4,4,0,0,1,2.55-.06,4.08,4.08,0,0,1,2.31,1.67A4.19,4.19,0,0,1,80.6,140.09Z"/><path class="cls-2" d="M65.71,148.6a4.16,4.16,0,0,1-3.26-1.48,4.08,4.08,0,0,1-1-3.14,4.14,4.14,0,0,1,1.44-2.77,6.63,6.63,0,0,1,1.93-1l2-.82a.52.52,0,0,1,.51,0l1.8,1c.12.06.25.13.2.27a.47.47,0,0,1-.24.26l-3.22,1.31c-.42.17-.85.34-1.25.55a1.9,1.9,0,0,0-.73,2.47,1.86,1.86,0,0,0,1.74,1.08,2.92,2.92,0,0,0,1-.27c.81-.31,1.6-.65,2.4-1,.5-.21,1-.42,1.51-.61a.51.51,0,0,1,.32,0c.14.06.1.19.06.32-.18.6-.37,1.2-.55,1.8a1.21,1.21,0,0,0-.05.18.46.46,0,0,1-.32.37c-.92.36-1.84.75-2.76,1.12A3.8,3.8,0,0,1,65.71,148.6Z"/><path class="cls-2" d="M73.65,145.88a.27.27,0,0,1,.37-.29l2.09.85.41.16a.25.25,0,0,1,.14.38c-.13.24-.27.46-.4.69a.24.24,0,0,1-.4.08l-1.58-1.29c-.15-.12-.32-.24-.47-.38A.66.66,0,0,1,73.65,145.88Z"/><path class="cls-2" d="M70.3,137.66c.1-.81.19-1.54.27-2.27,0-.14,0-.28.05-.42s.16-.37.43-.3l.64.19c.23.07.29.19.19.42-.23.54-.47,1.07-.71,1.61-.13.28-.24.56-.37.83a.23.23,0,0,1-.32.14C70.39,137.82,70.34,137.7,70.3,137.66Z"/><path class="cls-2" d="M71.74,146.78c-.07.54-.12,1-.18,1.49s-.09.75-.12,1.12-.11.43-.48.35c-.19,0-.39-.09-.58-.15s-.32-.19-.22-.44l.75-1.68.29-.69c.06-.13.16-.27.33-.21S71.69,146.72,71.74,146.78Z"/><path class="cls-2" d="M68.39,138.56a.27.27,0,0,1-.38.28l-2.46-1c-.22-.09-.26-.22-.15-.43s.23-.4.35-.59.29-.25.5-.08l.9.73,1.11.91A.7.7,0,0,1,68.39,138.56Z"/><path class="cls-6" d="M85,.75A83.44,83.44,0,0,0,18.78,33.38H151.27A83.42,83.42,0,0,0,85,.75Z"/></svg>