<svg id="Layer_1" data-name="Layer 1" xmlns="http://www.w3.org/2000/svg" viewBox="0 0 170.68 171.62"><defs><style>.cls-1{fill:#004d72;}.cls-2,.cls-3,.cls-4{fill:#fff;}.cls-2,.cls-4,.cls-5{stroke:#fff;}.cls-2,.cls-4,.cls-5,.cls-7{stroke-miterlimit:10;}.cls-2{stroke-width:0.5px;}.cls-5{fill:none;}.cls-6{fill:#c6c6c6;}.cls-7{fill:#61cbc8;stroke:#62cbc9;stroke-width:1.5px;}</style></defs><title>Icons_version1</title><path class="cls-1" d="M153,34.25H17.71a85.34,85.34,0,1,0,135.26,0Z"/><line class="cls-2" x1="86.02" y1="128.48" x2="86.02" y2="34.05"/><line x1="67.44" y1="64.21" x2="31.25" y2="75.59"/><polyline class="cls-3" points="31.17 145.51 31.17 75.56 67.28 64.33 67.28 134.28"/><polyline class="cls-3" points="140.35 145.51 140.35 75.56 104.24 64.33 104.24 134.28"/><line class="cls-4" x1="86.02" y1="128.48" x2="25.99" y2="147.34"/><line class="cls-4" x1="86.02" y1="128.48" x2="144.69" y2="146.57"/><circle class="cls-1" cx="61.36" cy="108.14" r="1.68"/><circle class="cls-1" cx="133.13" cy="113.68" r="1.68"/><path class="cls-3" d="M118.68,60.68a2.53,2.53,0,0,1-1,2.24,2.91,2.91,0,0,1-2.62.17,5.23,5.23,0,0,1-2.63-1.87,4.78,4.78,0,0,1-1-2.92V56.76a2.53,2.53,0,0,1,1-2.25,2.86,2.86,0,0,1,2.62-.13,5.35,5.35,0,0,1,2.62,1.89,4.77,4.77,0,0,1,1,2.9Zm-2-2.18a3.07,3.07,0,0,0-.43-1.62,2.13,2.13,0,0,0-1.22-1,1.08,1.08,0,0,0-1.22.17,1.84,1.84,0,0,0-.43,1.35V59a3.11,3.11,0,0,0,.43,1.64,2.24,2.24,0,0,0,1.23,1,1.12,1.12,0,0,0,1.21-.19,1.87,1.87,0,0,0,.43-1.36Z"/><path class="cls-3" d="M126.83,58.48v5.43a1.87,1.87,0,0,1-1,1.88,3.42,3.42,0,0,1-2.54,0,5.64,5.64,0,0,1-2.56-1.62,3.75,3.75,0,0,1-1-2.53V56.1l2,.67v5.48a2,2,0,0,0,.4,1.27,2.39,2.39,0,0,0,1.14.74,1.36,1.36,0,0,0,1.13,0c.27-.16.4-.49.4-1V57.81Z"/><path class="cls-3" d="M134.09,62.4l-2.25-.76v6.73l-2-.64V61l-2.23-.75V58.75l6.47,2.19Z"/><polygon class="cls-5" points="134.85 71.66 110.63 63.95 110.63 50.2 134.85 58.52 134.85 71.66"/><path class="cls-3" d="M45,66.09l-2,.64V58.28l2-.65Z"/><path class="cls-3" d="M53.63,63.27l-2,.65-3.12-4.38,0,0V65l-2,.65V57.14l2-.66,3.13,4.37,0,0V55.44l2-.66Z"/><polygon class="cls-5" points="54.96 65.44 41.73 69.76 41.73 56.13 54.96 51.74 54.96 65.44"/><path class="cls-6" d="M68.69,159.66a.84.84,0,0,1-.26-1.39L70,156.41a1.41,1.41,0,0,0,.14-.18c-.46,0-.9.07-1.34.08a16.74,16.74,0,0,1-10.32-3,15,15,0,0,1-6.21-9.3c-.13-.58-.17-1.19-.25-1.78,0-.07,0-.14,0-.21v-1.57c0-.35.08-.69.13-1a.76.76,0,0,1,.11-.33.61.61,0,0,1,.67-.32.69.69,0,0,1,.52.65,4.73,4.73,0,0,1,0,.75,12.08,12.08,0,0,0,1.72,7.4,14.33,14.33,0,0,0,9.82,6.85,16.36,16.36,0,0,0,4.63.31l.74-.09-.21-.14c-.84-.5-1.68-1-2.52-1.5a.82.82,0,0,1-.28-1.17.6.6,0,0,1,.84-.22c1.47.87,2.94,1.73,4.4,2.61a.82.82,0,0,1,.28,1.07,2.2,2.2,0,0,1-.17.25c-1,1.23-2.09,2.47-3.15,3.7a6.1,6.1,0,0,1-.46.41Z"/><path class="cls-6" d="M119.76,141a.85.85,0,0,1-1.39.26l-2-1.7c0,.22,0,.38,0,.55a16.65,16.65,0,0,1-.72,6.43,13.68,13.68,0,0,1-1.66,3.6,22.39,22.39,0,0,1-1.69,2.19,15.08,15.08,0,0,1-5,3.63,14.38,14.38,0,0,1-5.08,1.3l-.16,0h-1.53l-1-.12h-.08a.66.66,0,0,1-.6-.68.68.68,0,0,1,.68-.6c.25,0,.5,0,.74.06a12.26,12.26,0,0,0,5-.62,12,12,0,0,0,3.4-1.74c.55-.41,1.08-.86,1.61-1.3a12.63,12.63,0,0,0,1.77-2,13.67,13.67,0,0,0,1.71-3.17,15.71,15.71,0,0,0,1-7c0-.21,0-.42-.08-.69l-.68,1.13c-.33.53-.65,1.07-1,1.59a.85.85,0,0,1-1.27.14.59.59,0,0,1-.07-.78c.37-.62.76-1.24,1.14-1.87s.59-1,.89-1.49l.58-.9a.8.8,0,0,1,1-.28,1.94,1.94,0,0,1,.43.27l1.33,1.12,1.72,1.43c.19.15.39.29.56.45a4.09,4.09,0,0,1,.39.44Z"/><path class="cls-3" d="M84.47,166.79l-.07,0a1.12,1.12,0,0,1-1-1.22v-5.2H83a1.11,1.11,0,0,1-1.12-1.13c0-2,0-3.91,0-5.87A1.08,1.08,0,0,1,83,152.21c2,0,4.09,0,6.13,0a1.1,1.1,0,0,1,1.13,1.12c0,1.95,0,3.9,0,5.85a1.13,1.13,0,0,1-1.14,1.14H88.7v5c0,.91-.18,1.17-1,1.46Z"/><path class="cls-3" d="M74.55,150.06a1.3,1.3,0,0,1,.08-.17,1.06,1.06,0,0,1,1-.7h5.1a1.11,1.11,0,0,1,1.11,1.14.54.54,0,0,1-.31.6,2.65,2.65,0,0,0-1.38,2.4c0,2,0,3.93,0,5.89a3.16,3.16,0,0,0,.26,1.13,1.14,1.14,0,0,1-.94,1.54c-.86,0-1.74,0-2.61,0a1.09,1.09,0,0,1-1-1.17v-4.39l0,0a1.19,1.19,0,0,1-1.29-.91Z"/><path class="cls-3" d="M96.2,156.26v4.34A1.15,1.15,0,0,1,95,161.88H92.79a1.12,1.12,0,0,1-1.2-1.24.83.83,0,0,1,.07-.27,2.89,2.89,0,0,0,.27-1.26c0-1.9,0-3.81,0-5.72a2.82,2.82,0,0,0-1.54-2.58.34.34,0,0,1-.15-.23,1.29,1.29,0,0,1,.28-1,1.13,1.13,0,0,1,.87-.38h5a1.12,1.12,0,0,1,1.15,1.18V155a1.14,1.14,0,0,1-1.24,1.26Z"/><path class="cls-3" d="M88.66,148.68a2.6,2.6,0,1,1-2.58-2.63A2.6,2.6,0,0,1,88.66,148.68Z"/><path class="cls-3" d="M78.2,148.33a2.27,2.27,0,1,1,2.27-2.27A2.27,2.27,0,0,1,78.2,148.33Z"/><path class="cls-3" d="M96.18,146.1a2.27,2.27,0,1,1-2.24-2.3A2.25,2.25,0,0,1,96.18,146.1Z"/><path class="cls-7" d="M85,.75A83.44,83.44,0,0,0,18.78,33.38H151.27A83.42,83.42,0,0,0,85,.75Z"/></svg>