<svg width="24" height="24" viewBox="0 0 24 24" fill="none" xmlns="http://www.w3.org/2000/svg">
<rect opacity="0.6" width="24" height="24" rx="2" fill="white"/>
<path d="M11.5598 12L6.54378 8.08125C6.46182 8.01721 6.39529 7.93417 6.34946 7.83871C6.30364 7.74325 6.27979 7.63798 6.27979 7.53125V4.4375C6.27979 4.25516 6.34932 4.0803 6.47309 3.95136C6.59687 3.82243 6.76474 3.75 6.93979 3.75H16.1798C16.3548 3.75 16.5227 3.82243 16.6465 3.95136C16.7702 4.0803 16.8398 4.25516 16.8398 4.4375V7.50042C16.8398 7.60671 16.8161 7.71156 16.7707 7.80672C16.7252 7.90188 16.6592 7.98476 16.5778 8.04886L11.5598 12Z" stroke="#004F6E" stroke-width="2" stroke-linecap="round" stroke-linejoin="round"/>
<path d="M11.5598 12L6.54378 15.9188C6.46182 15.9828 6.39529 16.0658 6.34946 16.1613C6.30364 16.2568 6.27979 16.362 6.27979 16.4688V19.5625C6.27979 19.7448 6.34932 19.9197 6.47309 20.0486C6.59687 20.1776 6.76474 20.25 6.93979 20.25H16.1798C16.3548 20.25 16.5227 20.1776 16.6465 20.0486C16.7702 19.9197 16.8398 19.7448 16.8398 19.5625V16.4996C16.8398 16.3933 16.8161 16.2884 16.7707 16.1933C16.7252 16.0981 16.6592 16.0152 16.5778 15.9511L11.5598 12Z" stroke="#004F6E" stroke-width="2" stroke-linecap="round" stroke-linejoin="round"/>
<path d="M7.15967 8.56201H15.9263" stroke="#004F6E" stroke-width="2" stroke-linecap="round" stroke-linejoin="round"/>
<path d="M11.5601 15.4371V12" stroke="#004F6E" stroke-width="2" stroke-linecap="round" stroke-linejoin="round"/>
</svg>
