<svg width="24" height="24" viewBox="0 0 24 24" fill="none" xmlns="http://www.w3.org/2000/svg">
<rect opacity="0.6" width="24" height="24" rx="2" fill="white"/>
<path d="M5.68023 18.3198C4.88926 17.5288 5.41388 15.8682 5.01128 14.8952C4.59394 13.8865 3.0625 13.0746 3.0625 12C3.0625 10.9253 4.59395 10.1135 5.01129 9.10483C5.41389 8.1318 4.88926 6.4712 5.68023 5.68023C6.4712 4.88926 8.13181 5.41388 9.10484 5.01128C10.1135 4.59394 10.9254 3.0625 12 3.0625C13.0747 3.0625 13.8865 4.59395 14.8952 5.01129C15.8682 5.41389 17.5288 4.88926 18.3198 5.68023C19.1107 6.4712 18.5861 8.13181 18.9887 9.10484C19.4061 10.1135 20.9375 10.9254 20.9375 12C20.9375 13.0747 19.4061 13.8865 18.9887 14.8952C18.5861 15.8682 19.1107 17.5288 18.3198 18.3198C17.5288 19.1107 15.8682 18.5861 14.8952 18.9887C13.8865 19.4061 13.0746 20.9375 12 20.9375C10.9253 20.9375 10.1135 19.4061 9.10483 18.9887C8.1318 18.5861 6.4712 19.1107 5.68023 18.3198Z" stroke="#004F6E" stroke-width="2" stroke-linecap="round" stroke-linejoin="round"/>
<path d="M10.2812 10.0416L12.3438 8.90625V15.4375" stroke="#004F6E" stroke-width="2" stroke-linecap="round" stroke-linejoin="round"/>
</svg>
