<svg width="24" height="24" viewBox="0 0 24 24" fill="none" xmlns="http://www.w3.org/2000/svg">
<rect opacity="0.6" width="24" height="24" rx="2" fill="white"/>
<path d="M14.4 13.4545H15.825V16.1464L18.143 17.4923L17.4305 18.7332L14.4 16.9768V13.4545ZM18.2 8.68182H4.9V19.1818H9.3365C8.928 18.3132 8.7 17.3395 8.7 16.3182C8.7 14.5461 9.40062 12.8465 10.6477 11.5934C11.8949 10.3403 13.5863 9.63636 15.35 9.63636C16.3665 9.63636 17.3355 9.86545 18.2 10.2759V8.68182ZM4.9 21.0909C3.8455 21.0909 3 20.2318 3 19.1818V5.81818C3 4.75864 3.8455 3.90909 4.9 3.90909H5.85V2H7.75V3.90909H15.35V2H17.25V3.90909H18.2C18.7039 3.90909 19.1872 4.11023 19.5435 4.46825C19.8998 4.82627 20.1 5.31186 20.1 5.81818V11.6409C21.278 12.8436 22 14.495 22 16.3182C22 18.0903 21.2994 19.7899 20.0523 21.0429C18.8051 22.296 17.1137 23 15.35 23C13.5355 23 11.892 22.2745 10.695 21.0909H4.9ZM15.35 11.6886C14.128 11.6886 12.9561 12.1764 12.092 13.0446C11.2279 13.9128 10.7425 15.0904 10.7425 16.3182C10.7425 18.8764 12.804 20.9477 15.35 20.9477C15.9551 20.9477 16.5542 20.828 17.1132 20.5953C17.6722 20.3627 18.1801 20.0217 18.608 19.5918C19.0358 19.1619 19.3752 18.6515 19.6068 18.0898C19.8383 17.5281 19.9575 16.9261 19.9575 16.3182C19.9575 13.76 17.896 11.6886 15.35 11.6886Z" fill="#004F6E"/>
</svg>
