<svg width="26" height="36" viewBox="0 0 26 36" fill="none" xmlns="http://www.w3.org/2000/svg">
<path fill-rule="evenodd" clip-rule="evenodd" d="M12.7139 0.500035C12.7197 0.500012 12.7256 0.5 12.7314 0.5C15.1477 0.5 17.1064 2.45875 17.1064 4.875C17.1064 7.29125 15.1477 9.25 12.7314 9.25C12.7256 9.25 12.7197 9.24999 12.7139 9.24997V0.500035ZM12.7139 11.75H16.4817C16.8921 11.7495 17.2986 11.8301 17.6779 11.9871C18.0571 12.1442 18.4015 12.3747 18.6914 12.6653L24.8786 20.6202C25.0527 20.7944 25.1908 21.0011 25.285 21.2285C25.3792 21.456 25.4277 21.6998 25.4277 21.9461C25.4277 22.1923 25.3792 22.4361 25.285 22.6636C25.1908 22.8911 25.0527 23.0978 24.8786 23.2719C24.7044 23.446 24.4978 23.5841 24.2703 23.6783C24.0428 23.7726 23.799 23.8211 23.5527 23.8211C23.3065 23.8211 23.0627 23.7726 22.8352 23.6783C22.6077 23.5841 22.401 23.446 22.2269 23.2719L16.7978 19.0492L21.1311 32.7358C21.3413 33.1865 21.3638 33.7022 21.1937 34.1695C21.0236 34.6368 20.6749 35.0173 20.2242 35.2275C19.7735 35.4377 19.2578 35.4602 18.7905 35.2901C18.3232 35.12 17.9426 34.7713 17.7325 34.3206L12.7317 26.4501L12.7139 26.4781V11.75Z" fill="#5B5B5B"/>
<path fill-rule="evenodd" clip-rule="evenodd" d="M12.7139 0.500035C12.708 0.500012 12.7022 0.5 12.6963 0.5C10.28 0.5 8.32129 2.45875 8.32129 4.875C8.32129 7.29125 10.28 9.25 12.6963 9.25C12.7022 9.25 12.708 9.24999 12.7139 9.24997V0.500035ZM12.7139 11.75H8.94607C8.53561 11.7495 8.12909 11.8301 7.74987 11.9871C7.37066 12.1442 7.02622 12.3747 6.73636 12.6653L0.549175 20.6202C0.375065 20.7944 0.236953 21.0011 0.142726 21.2285C0.0484981 21.456 0 21.6998 0 21.9461C0 22.1923 0.0484981 22.4361 0.142726 22.6636C0.236953 22.8911 0.375065 23.0978 0.549175 23.2719C0.723285 23.446 0.929983 23.5841 1.15747 23.6783C1.38495 23.7726 1.62877 23.8211 1.875 23.8211C2.12123 23.8211 2.36505 23.7726 2.59253 23.6783C2.82002 23.5841 3.02672 23.446 3.20083 23.2719L8.62998 19.0492L4.2966 32.7358C4.08644 33.1865 4.06393 33.7022 4.23401 34.1695C4.40409 34.6368 4.75283 35.0173 5.20352 35.2275C5.65421 35.4377 6.16993 35.4602 6.63722 35.2901C7.10451 35.12 7.4851 34.7713 7.69526 34.3206L12.6961 26.4501L12.7139 26.4781V11.75Z" fill="#C1C1C1"/>
</svg>