<svg width="24" height="24" viewBox="0 0 24 24" fill="none" xmlns="http://www.w3.org/2000/svg">
<rect opacity="0.6" width="24" height="24" rx="2" fill="white"/>
<path d="M17.4 17.2C17.4 18.3046 16.5046 19.2 15.4 19.2C14.2954 19.2 13.4 18.3046 13.4 17.2C13.4 16.376 13.896 15.672 14.6 15.368V7.2H11V8.28C11.976 8.744 12.6 9.72 12.6 10.8V20H7V10.8C7 9.72 7.624 8.744 8.6 8.28V7.2H7V5.6H8.6V5.2C8.6 4.53726 9.13726 4 9.8 4C10.4627 4 11 4.53726 11 5.2V5.6H14.6C15.4837 5.6 16.2 6.31634 16.2 7.2V15.368C16.904 15.672 17.4 16.376 17.4 17.2Z" fill="#004F6E"/>
</svg>
