<svg width="24" height="24" viewBox="0 0 24 24" fill="none" xmlns="http://www.w3.org/2000/svg">
<rect opacity="0.6" width="24" height="24" rx="2" fill="white"/>
<path fill-rule="evenodd" clip-rule="evenodd" d="M6.5 14.353C6.5 17.4718 9.02827 20.0001 12.1471 20.0001C15.2658 20.0001 17.7941 17.4718 17.7941 14.353C17.7941 13.3774 17.4149 12.2279 16.8529 11.0603V12.0001H14.5L13.0553 9.953L11.6247 15.2942L9.32351 12.0001H7.44116V11.0603C6.87924 12.228 6.5 13.3774 6.5 14.353ZM7.44185 11.0589C9.04848 7.72125 12.1471 4.23535 12.1471 4.23535C12.1471 4.23535 15.2456 7.72125 16.8523 11.0589H14.9706L12.6694 7.76477L11.2388 13.1059L9.7941 11.0589H7.44185Z" fill="#004F6E"/>
</svg>
