<svg width="24" height="24" viewBox="0 0 24 24" fill="none" xmlns="http://www.w3.org/2000/svg">
<rect opacity="0.6" width="24" height="24" rx="2" fill="white"/>
<path d="M21 8C20 8 20 7 20 7V6H18V8H16V7C16 5.27 14.75 2 10 2C5.25 2 4 5.27 4 7V20C4 20.33 3.9 22 2 22V24C4.93 24 6 21.61 6 20V7C6 6.88 6.05 4 10 4C13.83 4 14 6.7 14 7V8H12V6H10V7C10 7 10 8 9 8C8 8 8 9 8 9V21C8 21 8 23 13 23C13.24 23 14.13 23 17 23C22 23 22 21 22 21V9C22 9 22 8 21 8ZM15 20.4C14.2044 20.4 13.4413 20.0839 12.8787 19.5213C12.3161 18.9587 12 18.1956 12 17.4C12 15.4 15 12 15 12C15 12 18 15.4 18 17.4C18 18.1956 17.6839 18.9587 17.1213 19.5213C16.5587 20.0839 15.7956 20.4 15 20.4Z" fill="#004F6E"/>
</svg>
