<svg width="24" height="24" viewBox="0 0 24 24" fill="none" xmlns="http://www.w3.org/2000/svg">
<rect opacity="0.6" width="24" height="24" rx="2" fill="white"/>
<path fill-rule="evenodd" clip-rule="evenodd" d="M14.4003 6.4V12.8C15.7776 13.833 16.3394 15.6315 15.795 17.2649C15.2505 18.8983 13.722 20 12.0003 20C10.2785 20 8.74998 18.8983 8.20552 17.2649C7.66107 15.6315 8.22288 13.833 9.60026 12.8V6.4C9.60026 5.07452 10.6748 4 12.0003 4C13.3257 4 14.4003 5.07452 14.4003 6.4ZM12.8 6.4C12.8 5.95817 12.4418 5.6 12 5.6C11.5581 5.6 11.2 5.95817 11.2 6.4V12H12.8V6.4Z" fill="#004F6E"/>
</svg>
