<svg width="18" height="20" viewBox="0 0 18 20" fill="none" xmlns="http://www.w3.org/2000/svg">
<path d="M8.30499 19.75C9.40499 19.75 10.305 18.85 10.305 17.75H6.30499C6.30499 18.85 7.20499 19.75 8.30499 19.75ZM8.30499 4.25C10.795 4.25 12.305 6.27 12.305 8.75V8.85L14.305 10.85V8.75C14.305 5.68 12.675 3.11 9.80499 2.43V1.75C9.80499 0.92 9.13499 0.25 8.30499 0.25C7.47499 0.25 6.80499 0.92 6.80499 1.75V2.43C6.56499 2.49 6.33499 2.58 6.11499 2.66L7.75499 4.3C7.93499 4.28 8.11499 4.25 8.30499 4.25ZM1.71499 1.1L0.304993 2.51L3.11499 5.32C2.59499 6.32 2.30499 7.49 2.30499 8.75V13.75L0.304993 15.75V16.75H14.545L16.285 18.49L17.695 17.08L1.71499 1.1ZM12.305 14.75H4.30499V8.75C4.30499 8.07 4.42499 7.43 4.64499 6.85L12.305 14.51V14.75Z" fill="#828282"/>
</svg>
