<svg width="24" height="24" viewBox="0 0 24 24" fill="none" xmlns="http://www.w3.org/2000/svg">
<rect opacity="0.6" width="24" height="24" rx="2" fill="white"/>
<path d="M16 3H13V6H9V3H6C5.46957 3 4.96086 3.21071 4.58579 3.58579C4.21071 3.96086 4 4.46957 4 5V21C4 21.5304 4.21071 22.0391 4.58579 22.4142C4.96086 22.7893 5.46957 23 6 23H16C16.5304 23 17.0391 22.7893 17.4142 22.4142C17.7893 22.0391 18 21.5304 18 21V5C18 4.46957 17.7893 3.96086 17.4142 3.58579C17.0391 3.21071 16.5304 3 16 3ZM11 8C11.5304 8 12.0391 8.21071 12.4142 8.58579C12.7893 8.96086 13 9.46957 13 10C13 10.5304 12.7893 11.0391 12.4142 11.4142C12.0391 11.7893 11.5304 12 11 12C10.4696 12 9.96086 11.7893 9.58579 11.4142C9.21071 11.0391 9 10.5304 9 10C9 9.46957 9.21071 8.96086 9.58579 8.58579C9.96086 8.21071 10.4696 8 11 8ZM15 16H7V15C7 13.67 9.67 13 11 13C12.33 13 15 13.67 15 15V16ZM12 5H10V1H12V5ZM15 19H7V18H15V19ZM11 21H7V20H11V21ZM20 13V7H22V13H20ZM20 17V15H22V17H20Z" fill="#004F6E"/>
</svg>
