<svg width="24" height="24" viewBox="0 0 24 24" fill="none" xmlns="http://www.w3.org/2000/svg">
<rect opacity="0.6" width="24" height="24" rx="2" fill="white"/>
<path d="M16 3H13V5H16V21H6V5H9V3H6C5.46957 3 4.96086 3.21071 4.58579 3.58579C4.21071 3.96086 4 4.46957 4 5V21C4 21.5304 4.21071 22.0391 4.58579 22.4142C4.96086 22.7893 5.46957 23 6 23H16C16.5304 23 17.0391 22.7893 17.4142 22.4142C17.7893 22.0391 18 21.5304 18 21V5C18 4.46957 17.7893 3.96086 17.4142 3.58579C17.0391 3.21071 16.5304 3 16 3ZM11 7C11.5304 7 12.0391 7.21071 12.4142 7.58579C12.7893 7.96086 13 8.46957 13 9C13 9.53043 12.7893 10.0391 12.4142 10.4142C12.0391 10.7893 11.5304 11 11 11C10.4696 11 9.96086 10.7893 9.58579 10.4142C9.21071 10.0391 9 9.53043 9 9C9 8.46957 9.21071 7.96086 9.58579 7.58579C9.96086 7.21071 10.4696 7 11 7ZM15 15H7V14C7 12.67 9.67 12 11 12C12.33 12 15 12.67 15 14V15ZM15 18H7V17H15V18ZM11 20H7V19H11V20ZM12 5H10V1H12V5ZM20 13V7H22V13H20ZM20 17V15H22V17H20Z" fill="#004F6E"/>
</svg>
