<svg width="24" height="24" viewBox="0 0 24 24" fill="none" xmlns="http://www.w3.org/2000/svg">
<rect opacity="0.6" width="24" height="24" rx="2" fill="white"/>
<path d="M12.8481 5.757V3L8.84934 7.08611L12.8481 11.0824V7.57105C15.344 8.00211 17.2423 10.2113 17.2423 12.8785C17.2423 15.5457 15.344 17.7549 12.8481 18.1859V20C16.3195 19.56 19 16.5425 19 12.8785C19 9.21447 16.3195 6.19704 12.8481 5.757ZM7.6629 18.5541C8.68236 19.3624 9.8688 19.8473 11.0904 20V18.177C10.3258 18.0423 9.58757 17.7369 8.92844 17.252L7.6629 18.5541ZM6.77527 13.7765H5C5.1494 15.0248 5.63277 16.2282 6.42373 17.2699L7.6629 15.9947C7.2059 15.3212 6.89831 14.5668 6.77527 13.7765ZM7.67169 9.76228L6.43252 8.48706C5.64156 9.52879 5.1494 10.7322 5 11.9805H6.77527C6.89831 11.1992 7.2059 10.4358 7.67169 9.76228Z" fill="#004F6E"/>
</svg>
