<svg width="24" height="24" viewBox="0 0 24 24" fill="none" xmlns="http://www.w3.org/2000/svg">
<rect opacity="0.6" width="24" height="24" rx="2" fill="white"/>
<path d="M7.875 9.9375H16.125C16.8543 9.9375 17.5538 10.2272 18.0695 10.743C18.5853 11.2587 18.875 11.9582 18.875 12.6875V19.5625C18.875 19.7448 18.8026 19.9197 18.6736 20.0486C18.5447 20.1776 18.3698 20.25 18.1875 20.25H5.8125C5.63016 20.25 5.4553 20.1776 5.32636 20.0486C5.19743 19.9197 5.125 19.7448 5.125 19.5625V12.6875C5.125 11.9582 5.41473 11.2587 5.93046 10.743C6.44618 10.2272 7.14565 9.9375 7.875 9.9375V9.9375Z" stroke="#004F6E" stroke-width="2" stroke-linecap="round" stroke-linejoin="round"/>
<path d="M7.875 9.9375V8.5625C7.875 8.01549 8.0923 7.49089 8.47909 7.10409C8.86589 6.7173 9.39049 6.5 9.9375 6.5H14.0625C14.6095 6.5 15.1341 6.7173 15.5209 7.10409C15.9077 7.49089 16.125 8.01549 16.125 8.5625V9.9375" stroke="#004F6E" stroke-width="2" stroke-linecap="round" stroke-linejoin="round"/>
<path d="M16.8125 4.4375C16.8125 4.07283 16.6676 3.72309 16.4098 3.46523C16.1519 3.20737 15.8022 3.0625 15.4375 3.0625H9.9375" stroke="#004F6E" stroke-width="2" stroke-linecap="round" stroke-linejoin="round"/>
<path d="M12 3.0625V6.5" stroke="#004F6E" stroke-width="2" stroke-linecap="round" stroke-linejoin="round"/>
</svg>
