<?xml version="1.0" encoding="UTF-8"?>
<svg width="72px" height="24px" viewBox="0 0 72 24" version="1.1" xmlns="http://www.w3.org/2000/svg" xmlns:xlink="http://www.w3.org/1999/xlink">
    <title>Group 39</title>
    <g id="wireframe" stroke="none" stroke-width="1" fill="none" fill-rule="evenodd">
        <g id="Group-39">
            <rect id="Rectangle" fill="#D44D27" x="0" y="0" width="72" height="24" rx="12"></rect>
            <path d="M18.7005,17.25 L19.4025,14.955 L22.9125,14.955 L23.6145,17.25 L25.815,17.25 L22.3995,7.5705 L19.902,7.5705 L16.5,17.25 L18.7005,17.25 Z M22.4265,13.2405 L19.9155,13.2405 L20.604,10.9995 C20.64,10.9005 20.69175,10.73175 20.75925,10.49325 C20.82675,10.25475 20.89875,10.00275 20.97525,9.73725 C21.05175,9.47175 21.1125,9.249 21.1575,9.069 C21.2025,9.249 21.261,9.4605 21.333,9.7035 C21.405,9.9465 21.477,10.185 21.549,10.419 C21.621,10.653 21.6795,10.8465 21.7245,10.9995 L21.7245,10.9995 L22.4265,13.2405 Z M28.8795,17.25 L28.8795,6.99 L26.868,6.99 L26.868,17.25 L28.8795,17.25 Z M32.997,20.49 L32.997,17.52 C32.997,17.178 32.961,16.818 32.889,16.44 L32.889,16.44 L32.997,16.44 C33.195,16.683 33.4515,16.90125 33.7665,17.09475 C34.0815,17.28825 34.5045,17.385 35.0355,17.385 C35.8635,17.385 36.543,17.061 37.074,16.413 C37.605,15.765 37.8705,14.811 37.8705,13.551 C37.8705,12.3 37.614,11.35275 37.101,10.70925 C36.588,10.06575 35.9175,9.744 35.0895,9.744 C34.5585,9.744 34.1265,9.852 33.7935,10.068 C33.4605,10.284 33.195,10.5405 32.997,10.8375 L32.997,10.8375 L32.9025,10.8375 L32.619,9.879 L30.9855,9.879 L30.9855,20.49 L32.997,20.49 Z M34.4685,15.7515 C33.9105,15.7515 33.52575,15.56025 33.31425,15.17775 C33.10275,14.79525 32.997,14.2485 32.997,13.5375 L32.997,13.5375 L32.997,13.3215 C33.006,12.6645 33.1185,12.17175 33.3345,11.84325 C33.5505,11.51475 33.9195,11.3505 34.4415,11.3505 C35.3595,11.3505 35.8185,12.075 35.8185,13.524 C35.8185,14.244 35.70825,14.79525 35.48775,15.17775 C35.26725,15.56025 34.9275,15.7515 34.4685,15.7515 Z M41.5425,17.25 L41.5425,13.7805 C41.5425,12.9975 41.65725,12.39675 41.88675,11.97825 C42.11625,11.55975 42.5325,11.3505 43.1355,11.3505 C43.9275,11.3505 44.3235,11.8815 44.3235,12.9435 L44.3235,12.9435 L44.3235,17.25 L46.335,17.25 L46.335,12.444 C46.335,11.499 46.092,10.81275 45.606,10.38525 C45.12,9.95775 44.481,9.744 43.689,9.744 C43.239,9.744 42.8295,9.8295 42.4605,10.0005 C42.0915,10.1715 41.79,10.446 41.556,10.824 L41.556,10.824 L41.448,10.824 C41.466,10.689 41.48625,10.45725 41.50875,10.12875 C41.53125,9.80025 41.5425,9.4515 41.5425,9.0825 L41.5425,9.0825 L41.5425,6.99 L39.531,6.99 L39.531,17.25 L41.5425,17.25 Z M50.196,17.385 C50.808,17.385 51.2895,17.295 51.6405,17.115 C51.9915,16.935 52.3245,16.647 52.6395,16.251 L52.6395,16.251 L52.6935,16.251 L53.085,17.25 L54.489,17.25 L54.489,12.336 C54.489,11.454 54.22575,10.79925 53.69925,10.37175 C53.17275,9.94425 52.4145,9.7305 51.4245,9.7305 C50.9025,9.7305 50.3985,9.79125 49.9125,9.91275 C49.4265,10.03425 48.99,10.194 48.603,10.392 L48.603,10.392 L49.2645,11.7555 C49.6065,11.6025 49.9485,11.47425 50.2905,11.37075 C50.6325,11.26725 50.9835,11.2155 51.3435,11.2155 C51.7035,11.2155 51.98475,11.3055 52.18725,11.4855 C52.38975,11.6655 52.491,11.949 52.491,12.336 L52.491,12.336 L52.491,12.66 L51.2085,12.7005 C50.1105,12.7455 49.287,12.9525 48.738,13.3215 C48.189,13.6905 47.9145,14.2665 47.9145,15.0495 C47.9145,15.8505 48.1305,16.44 48.5625,16.818 C48.9945,17.196 49.539,17.385 50.196,17.385 Z M50.952,15.9135 C50.664,15.9135 50.43,15.84825 50.25,15.71775 C50.07,15.58725 49.98,15.369 49.98,15.063 C49.98,14.712 50.106,14.4285 50.358,14.2125 C50.61,13.9965 51.06,13.8795 51.708,13.8615 L51.708,13.8615 L52.491,13.8345 L52.491,14.442 C52.491,14.91 52.3425,15.27225 52.0455,15.52875 C51.7485,15.78525 51.384,15.9135 50.952,15.9135 Z" id="Alpha" fill="#FFFFFF" fill-rule="nonzero"></path>
        </g>
    </g>
</svg>