<svg width="24" height="18" viewBox="0 0 24 18" fill="none" xmlns="http://www.w3.org/2000/svg">
<path fill-rule="evenodd" clip-rule="evenodd" d="M9.08397 3.81862V6.3861H17.9811C18.1768 6.3861 18.1768 6.3861 18.1768 6.58689V10.1751C18.1726 10.1792 18.1685 10.1834 18.1643 10.1875L18.1768 10.2157V10.1751C19.879 8.4853 21.585 6.79064 23.2948 5.09115L18.1763 0V3.6194V3.61944C18.1763 3.81862 18.1763 3.81862 17.9806 3.81862H9.08397ZM2.0889 10.8188C1.39377 11.5104 0.697831 12.2029 0 12.8976L5.13878 18.0002V17.887V14.3573C5.13878 14.1852 5.1393 14.1852 5.31316 14.1852H14.0468C14.2269 14.1852 14.2269 14.1847 14.2269 14.0064V11.7919C14.2269 11.6125 14.2264 11.6125 14.051 11.6125H14.051H5.31421C5.13514 11.6125 5.13514 11.612 5.13514 11.4373V11.4373V7.78662C4.1192 8.7986 3.10492 9.80782 2.0889 10.8188Z" fill="#828282"/>
</svg>
